<svg xmlns="http://www.w3.org/2000/svg"
     viewBox="0 0 200 200"
     width="240px"
     height="240px"
     fill="#000"
     stroke="#000"
     stroke-width="24"
     stroke-linecap="round">

  <line x1="100" y1="100" x2="100" y2="30" />
  <line x1="100" y1="100" x2="160" y2="65" />
  <line x1="100" y1="100" x2="160" y2="135" />
  <line x1="100" y1="100" x2="100" y2="170" />
  <line x1="100" y1="100" x2="40"  y2="135" />
  <line x1="100" y1="100" x2="40"  y2="65" />

  <circle cx="100" cy="100" r="14" />

  <circle cx="100" cy="30"  r="14" />
  <circle cx="160" cy="65"  r="14" />
  <circle cx="160" cy="135" r="14" />
  <circle cx="100" cy="170" r="14" />
  <circle cx="40"  cy="135" r="14" />
  <circle cx="40"  cy="65"  r="14" />

  <circle cx="100" cy="30"  r="16" fill='#00b4ff' stroke-width='0' />
  <circle cx="160" cy="135"  r="16" fill='#00b4ff' stroke-width='0'/>
  <circle cx="40" cy="135"  r="16" fill='#00b4ff' stroke-width='0'/>
  <circle cx="100" cy="100"  r="16" fill='#00b4ff' stroke-width='0'/>

  <line x1="100" y1="100" x2="100" y2="30" stroke='#00b4ff' stroke-width='12'/>
  <line x1="100" y1="100" x2="160" y2="135" stroke='#00b4ff' stroke-width='12'/>
  <line x1="100" y1="100" x2="40"  y2="135" stroke='#00b4ff' stroke-width='12'/>

</svg>
